<svg width="41" height="41" viewBox="0 0 41 41" fill="none" xmlns="http://www.w3.org/2000/svg">
<path fill-rule="evenodd" clip-rule="evenodd" d="M13.8663 17.7734L20.5016 11.138L27.1427 17.7791L31.0034 13.9184L20.5016 3.41667L10.0056 13.9127L13.8663 17.7734ZM3.41663 20.5012L7.27629 16.6415L11.136 20.5012L7.27629 24.3609L3.41663 20.5012ZM20.5016 29.8671L13.8662 23.2318L9.99987 27.0868L10.0056 27.0924L20.5016 37.5885L31.0033 27.0868L27.1426 23.2261L20.5016 29.8671ZM29.864 20.5039L33.7237 16.6442L37.5833 20.5039L33.7237 24.3636L29.864 20.5039ZM20.5016 16.585L24.4192 20.5026L20.5016 24.4258L16.5841 20.5083V20.4969L17.2721 19.8089L17.6076 19.4791L20.5016 16.585Z" fill="#F3BA2F"/>
</svg>
