<svg width="21" height="21" viewBox="0 0 21 21" fill="none" xmlns="http://www.w3.org/2000/svg">
<path fill-rule="evenodd" clip-rule="evenodd" d="M21 10.7387C21 9.99416 20.9318 9.27825 20.8052 8.59097H10.7143V12.6526H16.4805C16.2321 13.9651 15.4773 15.0771 14.3425 15.8217V18.4562H17.8052C19.8312 16.6283 21 13.9364 21 10.7387Z" fill="#4285F4"/>
<path fill-rule="evenodd" clip-rule="evenodd" d="M10.7143 21C13.6072 21 16.0325 20.0598 17.8052 18.4562L14.3425 15.8217C13.3831 16.4517 12.1559 16.8239 10.7143 16.8239C7.92371 16.8239 5.5617 14.9768 4.71916 12.495H1.13962V15.2155C2.9026 18.647 6.52598 21 10.7143 21Z" fill="#34A853"/>
<path fill-rule="evenodd" clip-rule="evenodd" d="M4.71916 12.495C4.50488 11.865 4.38312 11.1921 4.38312 10.5001C4.38312 9.80801 4.50487 9.13506 4.71916 8.50506V5.7846H1.13961C0.413961 7.2021 0 8.80574 0 10.5001C0 12.1944 0.413966 13.798 1.13962 15.2155L4.71916 12.495Z" fill="#FBBC05"/>
<path fill-rule="evenodd" clip-rule="evenodd" d="M10.7143 4.17614C12.2874 4.17614 13.6997 4.70591 14.8101 5.74637L17.8831 2.73477C16.0276 1.04045 13.6023 0 10.7143 0C6.52598 0 2.9026 2.35301 1.13961 5.7846L4.71916 8.50506C5.56169 6.02324 7.92371 4.17614 10.7143 4.17614Z" fill="#EA4335"/>
</svg>
