<svg width="86" height="86" viewBox="0 0 86 86" fill="none" xmlns="http://www.w3.org/2000/svg">
<path d="M75.3306 44.3438H41.6562V10.75C41.6562 10.3936 41.5148 10.0518 41.2627 9.79982C41.0107 9.54783 40.6689 9.40625 40.3125 9.40625C33.1367 9.40625 26.1221 11.5341 20.1557 15.5207C14.1893 19.5074 9.53905 25.1737 6.793 31.8032C4.04697 38.4329 3.32848 45.7277 4.7284 52.7656C6.12832 59.8035 9.58377 66.2682 14.6578 71.3422C19.7318 76.4162 26.1965 79.8717 33.2344 81.2716C40.2723 82.6715 47.5673 81.953 54.1968 79.2069C60.8263 76.461 66.4926 71.8107 70.4793 65.8443C74.4659 59.8779 76.5938 52.8633 76.5938 45.6875C76.5944 45.3447 76.4639 45.0146 76.2291 44.7647C75.9943 44.5149 75.6729 44.3643 75.3306 44.3438Z" fill="#FFC20E"/>
<path d="M26.2703 44.3439H23.0722C22.7093 44.3601 22.3467 44.3028 22.0066 44.1751C21.6664 44.0473 21.3557 43.8519 21.0933 43.6008C20.8307 43.3495 20.6219 43.0477 20.4793 42.7135C20.3367 42.3793 20.2634 42.0197 20.2638 41.6564C20.2638 41.3065 20.3353 40.9603 20.4739 40.6392C20.6126 40.318 20.8155 40.0284 21.07 39.7886C21.6082 39.2712 22.3257 38.9823 23.0722 38.9823H29.146C29.5023 38.9823 29.8442 38.8407 30.0961 38.5887C30.3482 38.3367 30.4897 37.9949 30.4897 37.6386C30.4897 37.2822 30.3482 36.9404 30.0961 36.6884C29.8442 36.4363 29.5023 36.2948 29.146 36.2948H26.015V33.0295C26.015 32.6731 25.8735 32.3313 25.6214 32.0793C25.3695 31.8273 25.0276 31.6858 24.6713 31.6858C24.3149 31.6858 23.9731 31.8273 23.7211 32.0793C23.4691 32.3313 23.3275 32.6731 23.3275 33.0295V36.2814H23.0722C21.6275 36.2721 20.2372 36.8321 19.2022 37.8401C18.6882 38.334 18.2793 38.9266 17.9999 39.5823C17.7206 40.2382 17.5764 40.9435 17.5763 41.6564C17.5761 42.3725 17.7191 43.0814 17.9967 43.7416C18.2743 44.4018 18.6811 44.9998 19.1931 45.5005C19.705 46.0011 20.312 46.3946 20.9781 46.6574C21.6443 46.9204 22.3563 47.0475 23.0722 47.0314H26.2703C26.6333 47.015 26.9958 47.0724 27.3361 47.2002C27.6762 47.3278 27.9868 47.5232 28.2494 47.7745C28.5118 48.0256 28.7208 48.3274 28.8632 48.6616C29.0058 48.9958 29.0792 49.3555 29.0788 49.7189C29.0652 50.423 28.7756 51.0938 28.2725 51.5867C27.733 52.1003 27.0153 52.3845 26.2703 52.3795H20.1563C19.7999 52.3795 19.4581 52.521 19.2061 52.7731C18.9541 53.025 18.8125 53.3669 18.8125 53.7233C18.8125 54.0796 18.9541 54.4213 19.2061 54.6734C19.4581 54.9254 19.7999 55.067 20.1563 55.067H23.2872V58.3189C23.2872 58.6753 23.4288 59.017 23.6808 59.2691C23.9327 59.521 24.2746 59.6626 24.631 59.6626C24.9873 59.6626 25.3292 59.521 25.5811 59.2691C25.8332 59.017 25.9747 58.6753 25.9747 58.3189V55.0133H26.23C27.6713 55.0176 29.0582 54.4638 30.1 53.4679C30.6132 52.9853 31.0249 52.4052 31.3111 51.7614C31.5972 51.1176 31.7519 50.4231 31.7663 49.7189C31.7665 49.0027 31.6236 48.2937 31.3459 47.6337C31.0682 46.9735 30.6614 46.3755 30.1495 45.8747C29.6375 45.374 29.0305 44.9807 28.3644 44.7177C27.6983 44.4549 26.9863 44.3278 26.2703 44.3439Z" fill="#466089"/>
<path d="M52.6616 33.3384L46.8297 30.1538C46.6254 30.0358 46.3936 29.9737 46.1578 29.9737C45.922 29.9737 45.6902 30.0358 45.4859 30.1538L39.6541 33.3384C39.444 33.4533 39.2684 33.6224 39.1456 33.8278C39.0228 34.0334 38.9571 34.2681 38.9553 34.5075V45.6875C38.9553 46.0439 39.0968 46.3857 39.3489 46.6377C39.6009 46.8896 39.9427 47.0313 40.2991 47.0313H51.9628C52.3192 47.0313 52.661 46.8896 52.913 46.6377C53.1649 46.3857 53.3066 46.0439 53.3066 45.6875V34.5075C53.3102 34.2733 53.2527 34.0423 53.1395 33.8372C53.0264 33.6322 52.8617 33.4602 52.6616 33.3384Z" fill="#98CA69"/>
<path d="M64.3119 21.1237L58.48 17.9391C58.2757 17.8212 58.0441 17.7591 57.8081 17.7591C57.5723 17.7591 57.3406 17.8212 57.1362 17.9391L51.3044 21.1237C51.0943 21.2388 50.9189 21.4077 50.7959 21.6133C50.6731 21.8187 50.6074 22.0533 50.6056 22.2928V45.6875C50.6056 46.044 50.7473 46.3857 50.9992 46.6377C51.2513 46.8897 51.593 47.0312 51.9494 47.0312H63.5997C63.9562 47.0312 64.2979 46.8897 64.5499 46.6377C64.8019 46.3857 64.9434 46.044 64.9434 45.6875V22.2928C64.9485 22.0599 64.893 21.8297 64.7823 21.6248C64.6716 21.4199 64.5095 21.2472 64.3119 21.1237Z" fill="#46BEE8"/>
<path d="M75.9756 7.37727L70.1437 4.19258C69.9395 4.07464 69.7077 4.01254 69.4719 4.01254C69.236 4.01254 69.0042 4.07464 68.8 4.19258L63.0353 7.37727C62.8207 7.49151 62.6412 7.66183 62.5158 7.87007C62.3903 8.07831 62.3238 8.31667 62.3231 8.55977V45.6876C62.3231 46.044 62.4648 46.3857 62.7167 46.6378C62.9687 46.8897 63.3105 47.0314 63.6669 47.0314H75.3306C75.687 47.0314 76.0288 46.8897 76.2808 46.6378C76.5327 46.3857 76.6744 46.044 76.6744 45.6876V8.55977C76.675 8.31804 76.6104 8.0806 76.4875 7.87249C76.3645 7.66439 76.1877 7.4933 75.9756 7.37727Z" fill="#98CA69"/>
</svg>
