<svg width="23" height="23" viewBox="0 0 23 23" fill="none" xmlns="http://www.w3.org/2000/svg">
<path d="M19.0756 18.3281L15.5394 14.7919C19.2194 10.5441 16.1251 3.75907 10.4542 3.78063C8.68164 3.78253 6.98218 4.48727 5.72846 5.74032C4.47473 6.99337 3.76908 8.69245 3.76623 10.465C3.74466 16.1395 10.5297 19.2338 14.7775 15.5538L18.3281 19.0756C18.4318 19.1447 18.5562 19.1757 18.6802 19.1634C18.8042 19.1511 18.9201 19.0963 19.0082 19.0082C19.0963 18.9201 19.1511 18.8042 19.1634 18.6802C19.1757 18.5562 19.1447 18.4318 19.0756 18.3281ZM4.84435 10.4506C4.84625 8.96372 5.43802 7.53831 6.48976 6.48724C7.5415 5.43618 8.96729 4.84533 10.4542 4.84438C17.8897 5.15344 17.8897 15.7514 10.4542 16.0605C8.96666 16.0595 7.54033 15.4682 6.48849 14.4163C5.43664 13.3645 4.8453 11.9382 4.84435 10.4506Z" fill="#847777"/>
</svg>
