<svg width="20" height="20" viewBox="0 0 20 20" fill="none" xmlns="http://www.w3.org/2000/svg">
<path d="M14.375 8.8125V5.5625C14.375 3.1875 12.4375 1.25 10 1.25C7.5625 1.25 5.625 3.1875 5.625 5.5625V8.8125C4.1875 9.125 3.125 10.375 3.125 11.875V15C3.125 16.75 4.5 18.125 6.25 18.125H13.75C15.5 18.125 16.875 16.75 16.875 15V11.875C16.875 10.375 15.8125 9.125 14.375 8.8125ZM10.625 14.875V15.625C10.625 16 10.375 16.25 10 16.25C9.625 16.25 9.375 16 9.375 15.625V14.875C8.625 14.625 8.125 13.9375 8.125 13.125C8.125 12.0625 8.9375 11.25 10 11.25C11.0625 11.25 11.875 12.0625 11.875 13.125C11.875 13.9375 11.375 14.625 10.625 14.875ZM13.125 8.75H6.875V5.5625C6.875 3.875 8.25 2.5 10 2.5C11.75 2.5 13.125 3.875 13.125 5.5625V8.75Z" fill="#847777"/>
</svg>
